<mxfile host="app.diagrams.net" modified="2023-10-06T21:08:53.993Z" agent="Mozilla/5.0 (Windows NT 10.0; Win64; x64) AppleWebKit/537.36 (KHTML, like Gecko) Chrome/117.0.0.0 Safari/537.36" etag="I2l2axcONzo4fKbjkBhC" version="22.0.3" type="github">
  <diagram name="Page-1" id="E8hzGdwR_PuFyFmaPrNc">
    <mxGraphModel dx="1434" dy="758" grid="1" gridSize="10" guides="1" tooltips="1" connect="1" arrows="1" fold="1" page="1" pageScale="1" pageWidth="850" pageHeight="1100" math="0" shadow="0">
      <root>
        <mxCell id="0" />
        <mxCell id="1" parent="0" />
        <mxCell id="XGvbOAoh1Z9JhivUaPHG-1" value="&lt;font style=&quot;font-size: 18px;&quot;&gt;start&lt;/font&gt;" style="whiteSpace=wrap;html=1;aspect=fixed;" vertex="1" parent="1">
          <mxGeometry x="230" width="60" height="60" as="geometry" />
        </mxCell>
        <mxCell id="XGvbOAoh1Z9JhivUaPHG-3" value="&lt;font style=&quot;font-size: 18px;&quot;&gt;is the year evenly divisible by 4?&amp;nbsp;&lt;/font&gt;" style="rounded=0;whiteSpace=wrap;html=1;" vertex="1" parent="1">
          <mxGeometry x="165" y="110" width="200" height="40" as="geometry" />
        </mxCell>
        <mxCell id="XGvbOAoh1Z9JhivUaPHG-11" value="&lt;font style=&quot;font-size: 16px;&quot; color=&quot;#1a1a1a&quot;&gt;yes&lt;/font&gt;" style="text;html=1;align=center;verticalAlign=middle;resizable=0;points=[];autosize=1;strokeColor=none;fillColor=#00FF00;" vertex="1" parent="1">
          <mxGeometry x="420" y="80" width="50" height="30" as="geometry" />
        </mxCell>
        <mxCell id="XGvbOAoh1Z9JhivUaPHG-12" value="Text" style="text;html=1;align=center;verticalAlign=middle;resizable=0;points=[];autosize=1;strokeColor=none;fillColor=none;" vertex="1" parent="1">
          <mxGeometry x="527.5" y="188" width="50" height="30" as="geometry" />
        </mxCell>
        <mxCell id="XGvbOAoh1Z9JhivUaPHG-13" value="&lt;font style=&quot;font-size: 16px;&quot; color=&quot;#1a1a1a&quot;&gt;no&lt;/font&gt;" style="text;html=1;align=center;verticalAlign=middle;resizable=0;points=[];autosize=1;strokeColor=none;fillColor=#00FF00;" vertex="1" parent="1">
          <mxGeometry x="70" y="80" width="40" height="30" as="geometry" />
        </mxCell>
        <mxCell id="XGvbOAoh1Z9JhivUaPHG-14" value="&lt;font style=&quot;font-size: 18px;&quot;&gt;is the year evenly divisible by 100?&amp;nbsp;&lt;/font&gt;" style="rounded=0;whiteSpace=wrap;html=1;" vertex="1" parent="1">
          <mxGeometry x="292.5" y="210" width="200" height="40" as="geometry" />
        </mxCell>
        <mxCell id="XGvbOAoh1Z9JhivUaPHG-15" value="&lt;font style=&quot;font-size: 18px;&quot;&gt;is the year evenly divisible by 400?&amp;nbsp;&lt;/font&gt;" style="rounded=0;whiteSpace=wrap;html=1;" vertex="1" parent="1">
          <mxGeometry x="440" y="310" width="200" height="40" as="geometry" />
        </mxCell>
        <mxCell id="XGvbOAoh1Z9JhivUaPHG-16" value="&lt;font style=&quot;font-size: 18px;&quot;&gt;not a leap year&lt;/font&gt;" style="rounded=0;whiteSpace=wrap;html=1;" vertex="1" parent="1">
          <mxGeometry x="30" y="400" width="200" height="40" as="geometry" />
        </mxCell>
      </root>
    </mxGraphModel>
  </diagram>
</mxfile>
